<svg xmlns="http://www.w3.org/2000/svg" version="1.1" xmlns:xlink="http://www.w3.org/1999/xlink" xmlns:svgjs="http://svgjs.dev/svgjs" width="1500" height="1036" viewBox="0 0 1500 1036"><g transform="matrix(1,0,0,1,-0.8445423636505893,-1.6709677419355558)"><svg viewBox="0 0 359 248" data-background-color="#ffffff" preserveAspectRatio="xMidYMid meet" height="1036" width="1500" xmlns="http://www.w3.org/2000/svg" xmlns:xlink="http://www.w3.org/1999/xlink"><g id="tight-bounds" transform="matrix(1,0,0,1,0.20212713903370627,0.4000000000000057)"><svg viewBox="0 0 358.5957457219326 247.2" height="247.2" width="358.5957457219326"><g><svg viewBox="0 0 395.52 272.6539429606512" height="247.2" width="358.5957457219326"><g transform="matrix(1,0,0,1,0,168.51107508338131)"><svg viewBox="0 0 395.52 104.14286787726986" height="104.14286787726986" width="395.52"><g id="textblocktransform"><svg viewBox="0 0 395.52 104.14286787726986" height="104.14286787726986" width="395.52" id="textblock"><g><svg viewBox="0 0 395.52 104.14286787726986" height="104.14286787726986" width="395.52"><g transform="matrix(1,0,0,1,0,0)"><svg width="395.52" viewBox="1.05 -38.5 159.69 42.05" height="104.14286787726986" data-palette-color="url(#2c1638d5-a043-4c3c-bee4-14c36557a15b)"></svg></g></svg></g></svg></g></svg></g><g transform="matrix(1,0,0,1,118.60065078134382,0)"><svg viewBox="0 0 158.31869843731235 143.92544340638696" height="143.92544340638696" width="158.31869843731235"><g><svg xmlns="http://www.w3.org/2000/svg" xmlns:xlink="http://www.w3.org/1999/xlink" version="1.1" x="0" y="0" viewBox="4.702 8 89.107 81.006" enable-background="new 0 0 100 100" xml:space="preserve" height="143.92544340638696" width="158.31869843731235" class="icon-icon-0" data-fill-palette-color="accent" id="icon-0"><g fill="#3d9970" data-fill-palette-color="accent"><polygon fill="#3d9970" points="4.702,89.006 93.809,89.006 93.809,16.101 53.306,16.101 53.306,24.201 85.708,24.201    85.708,80.905 12.803,80.905 12.803,64.704 4.702,64.704  " data-fill-palette-color="accent"></polygon><g fill="#3d9970" data-fill-palette-color="accent"><rect x="4.702" y="24.201" fill="#3d9970" width="8.101" height="8.101" data-fill-palette-color="accent"></rect><rect x="37.104" y="40.402" fill="#3d9970" width="8.101" height="8.101" data-fill-palette-color="accent"></rect><polygon fill="#3d9970" points="45.205,24.201 45.205,16.101 29.004,16.101 29.004,8 20.903,8 20.903,16.101 12.803,16.101     12.803,24.201 20.903,24.201 20.903,32.302 12.803,32.302 12.803,40.402 20.903,40.402 20.903,48.503 4.702,48.503 4.702,56.604     20.903,56.604 20.903,64.704 29.004,64.704 29.004,56.604 37.104,56.604 37.104,48.503 29.004,48.503 29.004,40.402     37.104,40.402 37.104,32.302 29.004,32.302 29.004,24.201   " data-fill-palette-color="accent"></polygon></g></g></svg></g></svg></g><g></g></svg></g><defs></defs><mask id="cb122500-4123-4c5c-98cd-db76a23953c9"><g id="SvgjsG4209"><svg viewBox="0 0 358.5957457219326 247.2" height="247.2" width="358.5957457219326"><g><svg viewBox="0 0 395.52 272.6539429606512" height="247.2" width="358.5957457219326"><g transform="matrix(1,0,0,1,0,168.51107508338131)"><svg viewBox="0 0 395.52 104.14286787726986" height="104.14286787726986" width="395.52"><g id="SvgjsG4208"><svg viewBox="0 0 395.52 104.14286787726986" height="104.14286787726986" width="395.52" id="SvgjsSvg4207"><g><svg viewBox="0 0 395.52 104.14286787726986" height="104.14286787726986" width="395.52"><g transform="matrix(1,0,0,1,0,0)"><svg width="395.52" viewBox="1.05 -38.5 159.69 42.05" height="104.14286787726986" data-palette-color="url(#2c1638d5-a043-4c3c-bee4-14c36557a15b)"><path d="M1.05-33.9L1.05-35 27.05-35 27.55-24.6 26.65-24.6Q24.8-30 22.38-31.95 19.95-33.9 15.15-33.9L15.15-33.9 13.75-33.9 13.75-17.65 16-17.65Q18.4-17.65 20-19.4 21.6-21.15 22.2-24.2L22.2-24.2 22.95-24.2 22.95-9.4 22.1-9.4Q21.3-13.15 19.88-14.75 18.45-16.35 16-16.35L16-16.35 13.75-16.35 13.75-1.1 19.95-1.1 19.95 0 1.05 0 1.05-1.1 4-1.1 4-33.9 1.05-33.9ZM37.45-27.25Q34.8-27.25 33.67-28.6 32.55-29.95 32.55-31.95 32.55-33.95 33.77-35.25 35-36.55 37.5-36.55 40-36.55 41.3-35.38 42.6-34.2 42.6-32.02 42.6-29.85 41.35-28.55 40.1-27.25 37.45-27.25ZM29.9-22.9L29.9-23.8 42.15-23.8 42.15-0.9 44.95-0.9 44.95 0 30.1 0 30.1-0.9 32.85-0.9 32.85-22.9 29.9-22.9ZM46.05-22.9L46.05-23.8 58.1-23.8 58.1-19.2Q58.9-21.5 60.55-22.9 62.2-24.3 65.55-24.3L65.55-24.3Q73.3-24.3 73.3-15.95L73.3-15.95 73.3-0.9 76.1-0.9 76.1 0 61.95 0 61.95-0.9 64-0.9 64-17.15Q64-20.15 63.6-21.03 63.2-21.9 62.15-21.9L62.15-21.9Q60.55-21.9 59.32-19.8 58.1-17.7 58.1-14.7L58.1-14.7 58.1-0.9 60.25-0.9 60.25 0 46.05 0 46.05-0.9 48.8-0.9 48.8-22.9 46.05-22.9ZM88.74-11.75L88.74-11.75 90.19-11.75 90.19-15.6Q90.19-20.35 89.67-21.98 89.14-23.6 87.64-23.6L87.64-23.6Q86.74-23.6 86.02-23.13 85.29-22.65 85.29-21.83 85.29-21 85.59-20.15L85.59-20.15 86.84-20.15Q87.24-19.1 87.24-17.63 87.24-16.15 85.99-15.08 84.74-14 82.84-14L82.84-14Q78.54-14 78.54-18.15L78.54-18.15Q78.54-24.3 88.99-24.3L88.99-24.3Q94.94-24.3 97.22-22.28 99.49-20.25 99.49-14.85L99.49-14.85 99.49-4.7Q99.49-2.1 100.94-2.1L100.94-2.1Q102.64-2.1 102.94-7.25L102.94-7.25 103.69-7.2Q103.49-2.8 102.04-1.15 100.59 0.5 97.29 0.5L97.29 0.5Q91.29 0.5 90.39-3.2L90.39-3.2Q89.74-1.3 88.44-0.4 87.14 0.5 84.64 0.5L84.64 0.5Q77.24 0.5 77.24-5.55L77.24-5.55Q77.24-9.1 80.07-10.43 82.89-11.75 88.74-11.75ZM86.74-5.6Q86.74-3 87.02-2.25 87.29-1.5 88.07-1.5 88.84-1.5 89.52-2.78 90.19-4.05 90.19-6.3L90.19-6.3 90.19-10.95 89.84-10.95Q86.74-10.95 86.74-6.4L86.74-6.4 86.74-5.6ZM104.29-22.9L104.29-23.8 116.34-23.8 116.34-19.2Q117.14-21.5 118.79-22.9 120.44-24.3 123.79-24.3L123.79-24.3Q131.54-24.3 131.54-15.95L131.54-15.95 131.54-0.9 134.34-0.9 134.34 0 120.19 0 120.19-0.9 122.24-0.9 122.24-17.15Q122.24-20.15 121.84-21.03 121.44-21.9 120.39-21.9L120.39-21.9Q118.79-21.9 117.57-19.8 116.34-17.7 116.34-14.7L116.34-14.7 116.34-0.9 118.49-0.9 118.49 0 104.29 0 104.29-0.9 107.04-0.9 107.04-22.9 104.29-22.9ZM147.39-38.5L147.39-34.55 148.54-34.6Q149.59-34.6 150.49-34.45L150.49-34.45 150.49-38.5 151.89-38.5 151.89-34.25Q152.84-34.05 154.44-33.58 156.04-33.1 156.76-33.1 157.49-33.1 157.94-34.1L157.94-34.1 158.44-34.1 158.79-24.25 158.04-24.25Q154.89-30.3 151.89-32.3L151.89-32.3 151.89-22Q155.99-20.65 158.36-18.25 160.74-15.85 160.74-11.2 160.74-6.55 158.36-3.48 155.99-0.4 151.89 0.3L151.89 0.3 151.89 3.55 150.49 3.55 150.49 0.45Q150.19 0.5 149.31 0.5 148.44 0.5 147.39 0.35L147.39 0.35 147.39 3.55 145.99 3.55 145.99 0.2 140.04-0.95Q139.24-0.95 138.69 0.5L138.69 0.5 138.04 0.5 137.59-11.1 138.39-11.1Q141.49-4.35 145.99-1.75L145.99-1.75 145.99-13Q141.99-14.4 139.86-16.88 137.74-19.35 137.74-23.58 137.74-27.8 139.91-30.7 142.09-33.6 145.99-34.35L145.99-34.35 145.99-38.5 147.39-38.5ZM150.09-0.55L150.09-0.55 150.49-0.55 150.49-11.5Q149.39-11.95 147.44-12.55L147.44-12.55 147.39-12.55 147.39-1.1Q148.74-0.55 150.09-0.55ZM147.39-33.55L147.39-23.35Q149.39-22.7 150.49-22.45L150.49-22.45 150.49-33.05Q149.24-33.6 148.39-33.6 147.54-33.6 147.39-33.55L147.39-33.55ZM155.99-5.65L155.99-5.65Q155.99-9 151.89-10.95L151.89-10.95 151.89-0.75Q153.69-1.2 154.84-2.45 155.99-3.7 155.99-5.65ZM142.24-28.65L142.24-28.65Q142.24-25.5 145.99-23.9L145.99-23.9 145.99-33.35Q144.29-32.85 143.26-31.6 142.24-30.35 142.24-28.65Z" opacity="1" transform="matrix(1,0,0,1,0,0)" fill="white" class="wordmark-text-0" id="SvgjsPath4206"></path></svg></g></svg></g></svg></g></svg></g><g transform="matrix(1,0,0,1,118.60065078134382,0)"><svg viewBox="0 0 158.31869843731235 143.92544340638696" height="143.92544340638696" width="158.31869843731235"><g><svg xmlns="http://www.w3.org/2000/svg" xmlns:xlink="http://www.w3.org/1999/xlink" version="1.1" x="0" y="0" viewBox="4.702 8 89.107 81.006" enable-background="new 0 0 100 100" xml:space="preserve" height="143.92544340638696" width="158.31869843731235" class="icon-icon-0" data-fill-palette-color="accent" id="SvgjsSvg4205"><g fill="black"><polygon fill="black" points="4.702,89.006 93.809,89.006 93.809,16.101 53.306,16.101 53.306,24.201 85.708,24.201    85.708,80.905 12.803,80.905 12.803,64.704 4.702,64.704  "></polygon><g fill="black"><rect x="4.702" y="24.201" fill="black" width="8.101" height="8.101"></rect><rect x="37.104" y="40.402" fill="black" width="8.101" height="8.101"></rect><polygon fill="black" points="45.205,24.201 45.205,16.101 29.004,16.101 29.004,8 20.903,8 20.903,16.101 12.803,16.101     12.803,24.201 20.903,24.201 20.903,32.302 12.803,32.302 12.803,40.402 20.903,40.402 20.903,48.503 4.702,48.503 4.702,56.604     20.903,56.604 20.903,64.704 29.004,64.704 29.004,56.604 37.104,56.604 37.104,48.503 29.004,48.503 29.004,40.402     37.104,40.402 37.104,32.302 29.004,32.302 29.004,24.201   "></polygon></g></g></svg></g></svg></g><g></g></svg></g><defs><mask></mask></defs></svg><rect width="358.5957457219326" height="247.2" fill="black" stroke="none" visibility="hidden"></rect></g></mask><linearGradient x1="0.054" x2="0.941" y1="0.5" y2="0.5" id="2c1638d5-a043-4c3c-bee4-14c36557a15b"><stop stop-color="#9c7945" offset="0"></stop><stop stop-color="#faf3aa" offset="0.498"></stop><stop stop-color="#9c7945" offset="1"></stop></linearGradient><rect width="358.5957457219326" height="247.2" fill="url(#2c1638d5-a043-4c3c-bee4-14c36557a15b)" mask="url(#cb122500-4123-4c5c-98cd-db76a23953c9)" data-fill-palette-color="primary"></rect></svg><rect width="358.5957457219326" height="247.2" fill="none" stroke="none" visibility="hidden"></rect></g></svg></g></svg>